<svg width="512" height="128" viewBox="0 0 512 128" fill="none" xmlns="http://www.w3.org/2000/svg">
<path d="M34.097 50.4285C38.9414 32.0898 43.8558 29.2132 61.9352 34.1272C79.4129 38.8783 82.6424 43.6954 78.4589 60.5849C78.4386 60.573 78.4177 60.5599 78.3973 60.548C77.0668 59.7687 75.7833 59.0605 74.5436 58.4457C75.283 55.3015 75.6963 52.7835 75.7843 50.7183C75.8945 48.1279 75.4868 46.5283 74.8405 45.3916C74.1935 44.2555 73.0314 43.1012 70.7656 41.9029C68.4535 40.6804 65.2446 39.5429 60.8206 38.3404C56.3967 37.1379 53.0577 36.4943 50.4527 36.3801C47.8978 36.2683 46.3222 36.6813 45.2015 37.3375C44.0812 37.994 42.9441 39.1713 41.7623 41.4711C40.5571 43.8168 39.4359 47.0708 38.2503 51.5592C37.0648 56.0474 36.4303 59.4338 36.3179 62.0764C36.2079 64.6675 36.6148 66.2665 37.2617 67.4031C37.9091 68.5389 39.0709 69.6938 41.3366 70.8918C43.0768 71.8116 45.3242 72.6834 48.2149 73.5708C47.8434 74.4448 47.5212 75.2976 47.2627 76.1305C47.1007 76.6528 46.965 77.1797 46.8482 77.7072C31.7533 73.0504 29.5663 67.5813 34.097 50.4285Z" fill="#0097CE"/>
<path d="M54.7757 70.1615C61.2475 58.7909 65.0384 57.7611 76.248 64.3262C87.4574 70.8912 88.4724 74.7366 82.0005 86.1077C75.5287 97.4784 71.7378 98.508 60.5282 91.9429C49.3191 85.378 48.3038 81.5324 54.7757 70.1615ZM67.7817 65.0308C66.2503 64.5419 65.3953 64.5844 64.8495 64.7325C64.3037 64.8808 63.5413 65.2784 62.455 66.4796C61.3348 67.7184 60.0693 69.587 58.5005 72.3433C56.9316 75.0999 55.9678 77.1461 55.4702 78.7496C54.9878 80.3046 55.0299 81.1733 55.1762 81.7269C55.3226 82.2805 55.7152 83.0519 56.8986 84.1531C58.1197 85.2894 59.9619 86.5731 62.679 88.1645C65.3965 89.756 67.4136 90.7337 68.9944 91.2384C70.5274 91.7278 71.3837 91.685 71.9295 91.5367C72.4752 91.3881 73.2356 90.99 74.3212 89.7895C75.4414 88.5507 76.7068 86.6822 78.2756 83.9258C79.8446 81.1693 80.8084 79.123 81.3059 77.5195C81.7879 75.9659 81.7459 75.0987 81.6 74.545C81.4537 73.9914 81.062 73.2181 79.8776 72.116C78.6564 70.9797 76.8145 69.6961 74.0971 68.1046C71.3797 66.5132 69.3625 65.5354 67.7817 65.0308Z" fill="#0097CE"/>
<path d="M454.438 69.7969V69.3516C454.438 65.8359 455.695 62.9922 458.211 60.8203C460.727 58.6484 464.047 57.5625 468.172 57.5625C472.266 57.5625 475.422 58.5859 477.641 60.6328C479.875 62.6797 480.992 65.4375 480.992 68.9062V70.5H457.016V67.3828H476.562V67.3125C476.562 65.5938 475.922 64.1328 474.641 62.9297C473.359 61.7266 471.203 61.125 468.172 61.125C465.094 61.125 462.781 61.8594 461.234 63.3281C459.703 64.7969 458.938 66.75 458.938 69.1875V69.9141C458.938 72.4297 459.734 74.4375 461.328 75.9375C462.922 77.4219 465.289 78.1641 468.43 78.1641C470.867 78.1641 472.82 77.8281 474.289 77.1562C475.758 76.4844 476.867 75.7188 477.617 74.8594L480.688 76.9453C479.812 78.1797 478.367 79.2812 476.352 80.25C474.352 81.2188 471.719 81.7031 468.453 81.7031C464.078 81.7031 460.648 80.625 458.164 78.4688C455.68 76.2969 454.438 73.4062 454.438 69.7969Z" fill="#0097CE"/>
<path d="M424.18 90.7031V58.2891H428.445L428.539 61.4766H428.562C429.297 60.5078 430.492 59.6328 432.148 58.8516C433.805 58.0703 435.836 57.6797 438.242 57.6797C442.086 57.6797 445.117 58.7344 447.336 60.8438C449.555 62.9531 450.664 65.7812 450.664 69.3281V69.8203C450.664 73.4453 449.531 76.3203 447.266 78.4453C445.016 80.5547 442.023 81.6094 438.289 81.6094C435.961 81.6094 433.969 81.2422 432.312 80.5078C430.656 79.7734 429.453 78.9922 428.703 78.1641L428.68 90.7031H424.18ZM428.68 74.0625C429.211 74.9844 430.227 75.8906 431.727 76.7812C433.227 77.6562 435.094 78.0938 437.328 78.0938C440.359 78.0938 442.578 77.3672 443.984 75.9141C445.391 74.4453 446.094 72.4141 446.094 69.8203V69.3047C446.094 66.8516 445.391 64.8984 443.984 63.4453C442.578 61.9766 440.352 61.2422 437.305 61.2422C435.195 61.2422 433.383 61.6406 431.867 62.4375C430.352 63.2344 429.289 64.1406 428.68 65.1562V74.0625Z" fill="#0097CE"/>
<path d="M392.445 74.2266C392.445 71.9453 393.344 70.1875 395.141 68.9531C396.953 67.7188 399.672 67.1094 403.297 67.125L412.227 67.1953V65.0859C412.227 63.6797 411.719 62.6328 410.703 61.9453C409.688 61.2422 407.938 60.8906 405.453 60.8906C403.141 60.8906 401.43 61.2188 400.32 61.875C399.227 62.5312 398.68 63.4297 398.68 64.5703V65.0859H394.344V64.4297C394.344 62.4141 395.328 60.7656 397.297 59.4844C399.266 58.2031 402.055 57.5625 405.664 57.5625C409.383 57.5625 412.156 58.1953 413.984 59.4609C415.812 60.7266 416.727 62.7344 416.727 65.4844V75.4922C416.727 76.4922 416.805 77.4375 416.961 78.3281C417.117 79.2188 417.352 79.9844 417.664 80.625V81H413.258C413.008 80.6094 412.797 80.1172 412.625 79.5234C412.453 78.9141 412.336 78.2031 412.273 77.3906C411.586 78.4375 410.375 79.3672 408.641 80.1797C406.906 80.9766 404.672 81.375 401.938 81.375C398.859 81.375 396.508 80.75 394.883 79.5C393.258 78.2344 392.445 76.4766 392.445 74.2266ZM396.922 74.0391C396.922 75.3672 397.406 76.3984 398.375 77.1328C399.344 77.8516 400.914 78.2109 403.086 78.2109C405.43 78.2109 407.539 77.6562 409.414 76.5469C411.289 75.4375 412.227 74.0703 412.227 72.4453V70.1016L404.258 70.0547C401.727 70.0547 399.867 70.375 398.68 71.0156C397.508 71.6562 396.922 72.6641 396.922 74.0391Z" fill="#0097CE"/>
<path d="M363.711 81V46.1484H368.211V62.25C369.117 61.0781 370.422 60.0156 372.125 59.0625C373.844 58.1094 375.844 57.6328 378.125 57.6328C381.094 57.6328 383.406 58.4453 385.062 60.0703C386.734 61.6953 387.57 64.1172 387.57 67.3359V81H383.047V67.7344C383.047 65.6719 382.523 64.0938 381.477 63C380.445 61.8906 378.922 61.3359 376.906 61.3359C374.859 61.3359 373.086 61.8047 371.586 62.7422C370.102 63.6641 368.984 64.7891 368.234 66.1172V81H363.711Z" fill="#0097CE"/>
<path d="M327.031 71.7891L326.984 70.8516H331.531L331.602 71.6719C331.773 73.875 332.766 75.4922 334.578 76.5234C336.391 77.5547 339.188 78.0703 342.969 78.0703C346.812 78.0703 349.594 77.5078 351.312 76.3828C353.031 75.2422 353.891 73.7656 353.891 71.9531C353.891 70.25 353 68.9766 351.219 68.1328C349.438 67.2734 346.18 66.3906 341.445 65.4844C336.445 64.5156 332.922 63.3047 330.875 61.8516C328.844 60.3984 327.828 58.3203 327.828 55.6172C327.828 52.8203 329.023 50.5469 331.414 48.7969C333.805 47.0469 337.398 46.1719 342.195 46.1719C347.055 46.1719 350.727 47.0469 353.211 48.7969C355.711 50.5469 357.07 52.8984 357.289 55.8516L357.336 56.5078H352.836L352.766 55.9453C352.625 54.1172 351.773 52.6406 350.211 51.5156C348.648 50.3906 345.984 49.8281 342.219 49.8281C338.672 49.8281 336.141 50.3359 334.625 51.3516C333.125 52.3516 332.375 53.6797 332.375 55.3359C332.375 56.8672 333.203 58.1016 334.859 59.0391C336.516 59.9609 339.727 60.8672 344.492 61.7578C349.508 62.7109 353.078 63.875 355.203 65.25C357.344 66.6094 358.414 68.7188 358.414 71.5781C358.414 74.7031 357.109 77.1719 354.5 78.9844C351.906 80.7969 348.086 81.7031 343.039 81.7031C337.961 81.7031 334.07 80.8672 331.367 79.1953C328.664 77.5078 327.219 75.0391 327.031 71.7891Z" fill="#0097CE"/>
<path d="M284.469 69.7969V69.3516C284.469 65.8359 285.727 62.9922 288.242 60.8203C290.758 58.6484 294.078 57.5625 298.203 57.5625C302.297 57.5625 305.453 58.5859 307.672 60.6328C309.906 62.6797 311.023 65.4375 311.023 68.9062V70.5H287.047V67.3828H306.594V67.3125C306.594 65.5938 305.953 64.1328 304.672 62.9297C303.391 61.7266 301.234 61.125 298.203 61.125C295.125 61.125 292.812 61.8594 291.266 63.3281C289.734 64.7969 288.969 66.75 288.969 69.1875V69.9141C288.969 72.4297 289.766 74.4375 291.359 75.9375C292.953 77.4219 295.32 78.1641 298.461 78.1641C300.898 78.1641 302.852 77.8281 304.32 77.1562C305.789 76.4844 306.898 75.7188 307.648 74.8594L310.719 76.9453C309.844 78.1797 308.398 79.2812 306.383 80.25C304.383 81.2188 301.75 81.7031 298.484 81.7031C294.109 81.7031 290.68 80.625 288.195 78.4688C285.711 76.2969 284.469 73.4062 284.469 69.7969Z" fill="#0097CE"/>
<path d="M274.25 81V46.1484H278.75V81H274.25Z" fill="#0097CE"/>
<path d="M242.797 69.7969V69.3281C242.797 65.75 244.023 62.8984 246.477 60.7734C248.945 58.6328 252.32 57.5625 256.602 57.5625C260.508 57.5625 263.523 58.3438 265.648 59.9062C267.773 61.4531 268.891 63.4609 269 65.9297L269.023 66.2812H264.523L264.5 66.0234C264.375 64.4922 263.664 63.2969 262.367 62.4375C261.07 61.5625 259.164 61.125 256.648 61.125C253.57 61.125 251.258 61.8672 249.711 63.3516C248.18 64.8359 247.414 66.8281 247.414 69.3281V69.9141C247.414 72.4453 248.156 74.4609 249.641 75.9609C251.141 77.4453 253.461 78.1875 256.602 78.1875C259.227 78.1875 261.195 77.75 262.508 76.875C263.836 76 264.531 74.7734 264.594 73.1953L264.617 72.9141H269.023V73.2656C268.93 75.75 267.812 77.7812 265.672 79.3594C263.547 80.9219 260.523 81.7031 256.602 81.7031C252.273 81.7031 248.891 80.6406 246.453 78.5156C244.016 76.3906 242.797 73.4844 242.797 69.7969Z" fill="#0097CE"/>
<path d="M224.164 81V58.2891H228.5L228.57 62.8359H228.641C229.422 61.4609 230.609 60.2422 232.203 59.1797C233.797 58.1016 235.641 57.5625 237.734 57.5625C238.578 57.5625 239.273 57.6328 239.82 57.7734C240.383 57.8984 240.836 58.0312 241.18 58.1719V62.0859C240.758 61.9297 240.266 61.8047 239.703 61.7109C239.156 61.6016 238.445 61.5469 237.57 61.5469C235.586 61.5469 233.812 62.0469 232.25 63.0469C230.688 64.0469 229.516 65.3047 228.734 66.8203V81H224.164Z" fill="#0097CE"/>
<path d="M211.93 81V58.2891H216.453V81H211.93ZM211.32 50.6484C211.32 49.8516 211.57 49.1875 212.07 48.6562C212.57 48.125 213.281 47.8594 214.203 47.8594C215.141 47.8594 215.852 48.125 216.336 48.6562C216.82 49.1875 217.062 49.8516 217.062 50.6484C217.062 51.4297 216.812 52.0938 216.312 52.6406C215.828 53.1719 215.125 53.4375 214.203 53.4375C213.281 53.4375 212.57 53.1719 212.07 52.6406C211.57 52.0938 211.32 51.4297 211.32 50.6484Z" fill="#0097CE"/>
<path d="M180.359 72.0703V58.2891H184.859V71.7422C184.859 73.7891 185.375 75.3438 186.406 76.4062C187.453 77.4688 188.984 78 191 78C193.031 78 194.797 77.5312 196.297 76.5938C197.812 75.6562 198.945 74.5312 199.695 73.2188V58.2891H204.219V81H199.93L199.836 77.0859H199.789C198.914 78.2734 197.609 79.3359 195.875 80.2734C194.141 81.1953 192.117 81.6562 189.805 81.6562C186.836 81.6562 184.516 80.8672 182.844 79.2891C181.188 77.7109 180.359 75.3047 180.359 72.0703Z" fill="#0097CE"/>
<path d="M146.609 69.7969V69.2578C146.609 65.8047 147.727 63.0156 149.961 60.8906C152.195 58.75 155.211 57.6797 159.008 57.6797C161.461 57.6797 163.516 58.0781 165.172 58.875C166.844 59.6719 168.039 60.5469 168.758 61.5H168.781L168.875 58.2891H173.117V90.7031H168.664L168.641 77.9766H168.664C167.773 79.0234 166.531 79.8906 164.938 80.5781C163.359 81.2656 161.375 81.6094 158.984 81.6094C155.219 81.6094 152.211 80.5547 149.961 78.4453C147.727 76.3203 146.609 73.4375 146.609 69.7969ZM151.18 69.8203C151.18 72.4141 151.883 74.4375 153.289 75.8906C154.711 77.3438 156.93 78.0703 159.945 78.0703C162.227 78.0703 164.102 77.6484 165.57 76.8047C167.055 75.9609 168.07 75.0391 168.617 74.0391V65.1797C167.977 64.1484 166.898 63.2344 165.383 62.4375C163.883 61.6406 162.078 61.2422 159.969 61.2422C156.891 61.2422 154.656 61.9922 153.266 63.4922C151.875 64.9922 151.18 66.9375 151.18 69.3281V69.8203Z" fill="#0097CE"/>
<path d="M111.641 71.7891L111.594 70.8516H116.141L116.211 71.6719C116.383 73.875 117.375 75.4922 119.188 76.5234C121 77.5547 123.797 78.0703 127.578 78.0703C131.422 78.0703 134.203 77.5078 135.922 76.3828C137.641 75.2422 138.5 73.7656 138.5 71.9531C138.5 70.25 137.609 68.9766 135.828 68.1328C134.047 67.2734 130.789 66.3906 126.055 65.4844C121.055 64.5156 117.531 63.3047 115.484 61.8516C113.453 60.3984 112.438 58.3203 112.438 55.6172C112.438 52.8203 113.633 50.5469 116.023 48.7969C118.414 47.0469 122.008 46.1719 126.805 46.1719C131.664 46.1719 135.336 47.0469 137.82 48.7969C140.32 50.5469 141.68 52.8984 141.898 55.8516L141.945 56.5078H137.445L137.375 55.9453C137.234 54.1172 136.383 52.6406 134.82 51.5156C133.258 50.3906 130.594 49.8281 126.828 49.8281C123.281 49.8281 120.75 50.3359 119.234 51.3516C117.734 52.3516 116.984 53.6797 116.984 55.3359C116.984 56.8672 117.812 58.1016 119.469 59.0391C121.125 59.9609 124.336 60.8672 129.102 61.7578C134.117 62.7109 137.688 63.875 139.812 65.25C141.953 66.6094 143.023 68.7188 143.023 71.5781C143.023 74.7031 141.719 77.1719 139.109 78.9844C136.516 80.7969 132.695 81.7031 127.648 81.7031C122.57 81.7031 118.68 80.8672 115.977 79.1953C113.273 77.5078 111.828 75.0391 111.641 71.7891Z" fill="#0097CE"/>
</svg>
